<svg viewBox="0 0 200 200" xmlns="http://www.w3.org/2000/svg" >
  <path fill="#D58D3C" d="M31.2,-48.5C45.2,-46,64.4,-47.2,75.3,-39.7C86.2,-32.2,88.8,-16.1,83.5,-3C78.3,10.1,65.3,20.2,56.3,30.8C47.2,41.5,42.1,52.7,33.4,56.9C24.6,61.1,12.3,58.2,-0.1,58.4C-12.5,58.5,-24.9,61.6,-37,59.4C-49.1,57.1,-60.8,49.5,-62.7,38.7C-64.5,27.9,-56.5,14,-56.1,0.2C-55.7,-13.5,-62.8,-26.9,-57.5,-31.8C-52.2,-36.6,-34.4,-32.7,-22.8,-36.5C-11.1,-40.3,-5.6,-51.8,1.5,-54.4C8.6,-57.1,17.3,-51,31.2,-48.5Z" transform="translate(100 100)" />
</svg>